<svg width="40" height="40" viewBox="0 0 40 40" fill="none" xmlns="http://www.w3.org/2000/svg">
<path d="M8 12C8 9.79086 9.79086 8 12 8H28C30.2091 8 32 9.79086 32 12V28C32 30.2091 30.2091 32 28 32H12C9.79086 32 8 30.2091 8 28V12Z" fill="#2D69FD"/>
<path fill-rule="evenodd" clip-rule="evenodd" d="M32 1H8C4.13401 1 1 4.13401 1 8V32C1 35.866 4.13401 39 8 39H32C35.866 39 39 35.866 39 32V8C39 4.13401 35.866 1 32 1ZM8 0C3.58172 0 0 3.58172 0 8V32C0 36.4183 3.58172 40 8 40H32C36.4183 40 40 36.4183 40 32V8C40 3.58172 36.4183 0 32 0H8Z" fill="#2D69FD" fill-opacity="0.3"/>
<path d="M20.001 11C15.0279 10.9979 11 15.1333 11 20.2375C11 24.2738 13.5197 27.7048 17.0288 28.9649C17.5014 29.0868 17.429 28.7418 17.429 28.5063V26.9054C14.7001 27.2339 14.5895 25.3789 14.4065 25.0691C14.0365 24.4205 13.1618 24.2552 13.4232 23.9454C14.0446 23.6169 14.678 24.028 15.412 25.1414C15.9429 25.949 16.9786 25.8127 17.5034 25.6784C17.618 25.193 17.8634 24.7592 18.2012 24.4225C15.3738 23.902 14.1954 22.1297 14.1954 20.0227C14.1954 19.0002 14.5232 18.0604 15.1667 17.3023C14.7565 16.0526 15.2049 14.9826 15.2652 14.8235C16.4336 14.7161 17.6482 15.6828 17.7427 15.7592C18.4063 15.5754 19.1645 15.4783 20.0131 15.4783C20.8657 15.4783 21.6259 15.5795 22.2955 15.7654C22.5227 15.5878 23.6489 14.7574 24.7348 14.8586C24.7931 15.0177 25.2315 16.0629 24.8454 17.2961C25.4969 18.0562 25.8287 19.0044 25.8287 20.0289C25.8287 22.14 24.6423 23.9144 21.8068 24.4267C22.0497 24.672 22.2425 24.9646 22.3741 25.2873C22.5056 25.6101 22.5733 25.9565 22.573 26.3064V28.6302C22.5891 28.8162 22.573 29 22.8747 29C26.436 27.7668 29 24.311 29 20.2396C29 15.1333 24.9701 11 20.001 11V11Z" fill="white"/>
</svg>
