<svg width="40" height="40" viewBox="0 0 40 40" fill="none" xmlns="http://www.w3.org/2000/svg">
<rect x="8" y="8" width="24" height="24" rx="4" fill="#2D69FD"/>
<path d="M19.9993 17.5003C19.3363 17.5003 18.7004 17.7637 18.2316 18.2326C17.7627 18.7014 17.4993 19.3373 17.4993 20.0003C17.4993 20.6634 17.7627 21.2993 18.2316 21.7681C18.7004 22.2369 19.3363 22.5003 19.9993 22.5003C20.6624 22.5003 21.2983 22.2369 21.7671 21.7681C22.236 21.2993 22.4993 20.6634 22.4993 20.0003C22.4993 19.3373 22.236 18.7014 21.7671 18.2326C21.2983 17.7637 20.6624 17.5003 19.9993 17.5003ZM19.9993 15.8337C21.1044 15.8337 22.1642 16.2726 22.9456 17.054C23.727 17.8354 24.166 18.8953 24.166 20.0003C24.166 21.1054 23.727 22.1652 22.9456 22.9466C22.1642 23.728 21.1044 24.167 19.9993 24.167C18.8943 24.167 17.8345 23.728 17.0531 22.9466C16.2717 22.1652 15.8327 21.1054 15.8327 20.0003C15.8327 18.8953 16.2717 17.8354 17.0531 17.054C17.8345 16.2726 18.8943 15.8337 19.9993 15.8337ZM25.416 15.6253C25.416 15.9016 25.3063 16.1665 25.1109 16.3619C24.9156 16.5572 24.6506 16.667 24.3743 16.667C24.0981 16.667 23.8331 16.5572 23.6378 16.3619C23.4424 16.1665 23.3327 15.9016 23.3327 15.6253C23.3327 15.3491 23.4424 15.0841 23.6378 14.8888C23.8331 14.6934 24.0981 14.5837 24.3743 14.5837C24.6506 14.5837 24.9156 14.6934 25.1109 14.8888C25.3063 15.0841 25.416 15.3491 25.416 15.6253ZM19.9993 13.3337C17.9377 13.3337 17.601 13.3395 16.6418 13.382C15.9885 13.4128 15.5502 13.5003 15.1435 13.6587C14.7818 13.7987 14.521 13.9662 14.2435 14.2445C13.9827 14.4965 13.7821 14.8041 13.6568 15.1445C13.4985 15.5528 13.411 15.9903 13.381 16.6428C13.3377 17.5628 13.3327 17.8845 13.3327 20.0003C13.3327 22.062 13.3385 22.3987 13.381 23.3578C13.4118 24.0103 13.4993 24.4495 13.6568 24.8553C13.7985 25.2178 13.9652 25.4787 14.2418 25.7553C14.5227 26.0353 14.7835 26.2028 15.1418 26.3412C15.5535 26.5003 15.9918 26.5887 16.6418 26.6187C17.5618 26.662 17.8835 26.667 19.9993 26.667C22.061 26.667 22.3977 26.6612 23.3568 26.6187C24.0085 26.5878 24.4477 26.5003 24.8544 26.3428C25.2152 26.202 25.4777 26.0345 25.7543 25.7578C26.0352 25.477 26.2027 25.2162 26.341 24.8578C26.4994 24.447 26.5877 24.0078 26.6177 23.3578C26.661 22.4378 26.666 22.1162 26.666 20.0003C26.666 17.9387 26.6602 17.602 26.6177 16.6428C26.5868 15.9912 26.4994 15.5512 26.341 15.1445C26.2154 14.8045 26.0152 14.497 25.7552 14.2445C25.5033 13.9835 25.1956 13.783 24.8552 13.6578C24.4468 13.4995 24.0085 13.412 23.3568 13.382C22.4368 13.3387 22.1152 13.3337 19.9993 13.3337ZM19.9993 11.667C22.2635 11.667 22.546 11.6753 23.4343 11.717C24.3218 11.7587 24.926 11.8978 25.4577 12.1045C26.0077 12.3162 26.471 12.6028 26.9344 13.0653C27.3581 13.4819 27.686 13.9858 27.8952 14.542C28.101 15.0728 28.241 15.6778 28.2827 16.5653C28.3218 17.4537 28.3327 17.7362 28.3327 20.0003C28.3327 22.2645 28.3244 22.547 28.2827 23.4353C28.241 24.3228 28.101 24.927 27.8952 25.4587C27.6866 26.0151 27.3586 26.5192 26.9344 26.9353C26.5177 27.3589 26.0138 27.6868 25.4577 27.8962C24.9268 28.102 24.3218 28.242 23.4343 28.2837C22.546 28.3228 22.2635 28.3337 19.9993 28.3337C17.7352 28.3337 17.4527 28.3253 16.5643 28.2837C15.6768 28.242 15.0727 28.102 14.541 27.8962C13.9846 27.6874 13.4806 27.3594 13.0643 26.9353C12.6405 26.5188 12.3126 26.0149 12.1035 25.4587C11.8968 24.9278 11.7577 24.3228 11.716 23.4353C11.6768 22.547 11.666 22.2645 11.666 20.0003C11.666 17.7362 11.6743 17.4537 11.716 16.5653C11.7577 15.677 11.8968 15.0737 12.1035 14.542C12.312 13.9855 12.64 13.4814 13.0643 13.0653C13.4807 12.6414 13.9847 12.3134 14.541 12.1045C15.0727 11.8978 15.676 11.7587 16.5643 11.717C17.4527 11.6778 17.7352 11.667 19.9993 11.667Z" fill="white"/>
<rect x="0.5" y="0.5" width="39" height="39" rx="7.5" stroke="#2D69FD" stroke-opacity="0.3"/>
</svg>
