<svg width="40" height="40" viewBox="0 0 40 40" fill="none" xmlns="http://www.w3.org/2000/svg">
<rect x="8" y="8" width="24" height="24" rx="4" fill="#2D69FD"/>
<path d="M14.5995 16.0113C14.1308 16.0113 13.747 15.8661 13.4482 15.5758C13.1494 15.2793 13 14.9179 13 14.4917C13 14.0532 13.1494 13.6949 13.4482 13.4169C13.747 13.139 14.1308 13 14.5995 13C15.0741 13 15.4578 13.139 15.7508 13.4169C16.0496 13.6949 16.199 14.0532 16.199 14.4917C16.199 14.9365 16.0496 15.3009 15.7508 15.585C15.4578 15.8692 15.0741 16.0113 14.5995 16.0113ZM15.9705 27H13.1933V17.5122H15.9705V27Z" fill="white"/>
<path d="M27 27H24.2316V21.728C24.2316 20.2579 23.7336 19.5228 22.7376 19.5228C22.2572 19.5228 21.8617 19.7174 21.5512 20.1066C21.2406 20.4957 21.0854 20.9899 21.0854 21.589V27H18.3082V17.5122H21.0854V19.0132H21.1205C21.7826 17.8582 22.7464 17.2806 24.0119 17.2806C26.004 17.2806 27 18.5839 27 21.1906V27Z" fill="white"/>
<rect x="0.5" y="0.5" width="39" height="39" rx="7.5" stroke="#2D69FD" stroke-opacity="0.3"/>
</svg>
